<!--?xml version="1.0" encoding="utf-8"?-->
<!-- Generator: Adobe Illustrator 25.2.3, SVG Export Plug-In . SVG Version: 6.00 Build 0)  -->
<svg version="1.1" id="_x34_" xmlns="http://www.w3.org/2000/svg" xmlns:xlink="http://www.w3.org/1999/xlink" x="0px" y="0px" viewBox="0 0 800 716.961" style="enable-background:new 0 0 800 716.961;" xml:space="preserve">
<style type="text/css">
	.st0{fill:#FFFFFF;}
</style>
<g>
	<path class="st0" d="M269.796,22.784C99.792,39.707,53.947,158.477,115.886,201.646c61.94,43.17-90.093,33.784-95.724,148.279
		C14.532,464.417,157.179,466.295,134.655,500.08c-22.524,33.784-37.538,79.563,26.277,116.736
		c63.816,37.174,245.88,14.352,281.542,28.579c35.662,14.224,22.363,40.427,18.769,53.642c11.262,0,52.555-54.681,61.94-53.617
		c9.384,1.062,56.254-1.197,120.209-1.197c56.916,0,97.347-106.584,35.577-119.743c97.601-7.509,158.78-264.65,19.328-296.559
		C800.044,124.027,669.585,37.059,585.124,27.673C500.66,18.29,359.705,13.836,269.796,22.784z"></path>
</g>
</svg>
